<svg width="50" height="50" viewBox="0 0 50 50" fill="none" xmlns="http://www.w3.org/2000/svg">
<path d="M38.9755 14.0622L40.0545 14.8434C41.931 16.357 43.01 18.066 43.2446 20.019C45.2618 19.6284 47.842 19.9214 48.9679 20.7026L50 21.3373L49.8123 21.7279C49.484 22.4603 49.3901 22.6556 49.3432 22.7533C47.5136 26.4152 43.9013 26.4641 42.2125 26.4152C37.9434 37.1082 28.8423 43.0161 16.5512 43.0161C10.8747 43.0161 6.55877 41.2096 3.65017 37.6452C-0.196674 32.9579 -0.196674 26.8547 0.131715 24.9016L0.225541 24.511H34.1435C35.9262 24.511 37.2866 24.0228 37.9434 23.6321C37.2397 22.558 37.0052 21.3373 36.9582 20.6537C36.8175 18.7007 37.2866 16.65 38.2249 15.1852L38.9755 14.0622ZM9.04514 18.6519V23.5345H3.88474V18.6519H9.04514ZM15.1438 18.6519V23.5345H9.9834V18.6519H15.1438ZM21.2425 18.6519V23.5345H16.0821V18.6519H21.2425ZM27.3411 18.6519V23.5345H22.1807V18.6519H27.3411ZM33.4398 18.6519V23.5345H28.2794V18.6519H33.4398ZM27.3411 12.7927V17.6753H22.1807V12.7927H27.3411ZM21.2425 12.7927V17.6753H16.0821V12.7927H21.2425ZM15.1438 12.7927V17.6753H9.9834V12.7927H15.1438ZM27.3411 6.93359V11.8162H22.1807V6.93359H27.3411Z" fill="#2396ED"/>
</svg>
