<svg width="50" height="50" viewBox="0 0 50 50" fill="none" xmlns="http://www.w3.org/2000/svg">
<g clip-path="url(#clip0_1_247)">
<path d="M49.1591 19.9667L49.0891 19.7877L42.2917 2.05169C42.1536 1.70384 41.9091 1.40852 41.5933 1.20786C41.275 1.00699 40.9023 0.909856 40.5266 0.929855C40.1508 0.949853 39.7905 1.086 39.4953 1.3195C39.203 1.55393 38.9922 1.87469 38.893 2.23603L34.2973 16.3006H15.7045L11.109 2.23603C11.0098 1.87469 10.799 1.55393 10.5066 1.3195C10.2128 1.08443 9.85269 0.947259 9.47692 0.927236C9.10114 0.907213 8.72852 1.00534 8.41134 1.20786C8.09411 1.40769 7.84862 1.7032 7.71031 2.05169L0.905178 19.8109L0.835075 19.9875C-0.141802 22.5453 -0.261881 25.3511 0.492894 27.983C1.24767 30.6148 2.8365 32.9306 5.02045 34.5819L5.04642 34.6L5.10614 34.6467L15.4735 42.4073L20.5987 46.2891L23.7145 48.6491C24.0805 48.9256 24.5267 49.0753 24.9855 49.0753C25.4441 49.0753 25.8903 48.9256 26.2564 48.6491L29.372 46.2891L34.4998 42.4073L44.927 34.6L44.9555 34.5792C47.1469 32.9295 48.742 30.6119 49.5003 27.9758C50.2588 25.3398 50.1389 22.5287 49.1591 19.9667Z" fill="#E24329"/>
<path d="M49.1593 19.9667L49.0893 19.7877C45.7742 20.4708 42.6503 21.8758 39.9397 23.9028L25.0129 35.2153C30.1018 39.0633 34.5314 42.4073 34.5314 42.4073L44.9584 34.6L44.987 34.5792C47.1729 32.9255 48.7618 30.6058 49.5145 27.9702C50.2672 25.3344 50.1425 22.5255 49.1593 19.9667Z" fill="#FC6D26"/>
<path d="M15.4816 42.4073L20.5991 46.2891L23.7147 48.6491C24.0808 48.9256 24.5269 49.0753 24.9856 49.0753C25.4444 49.0753 25.8906 48.9256 26.2566 48.6491L29.3722 46.2891L34.5002 42.4073C34.5002 42.4073 30.0706 39.0633 24.9817 35.2153L15.4816 42.4073Z" fill="#FCA326"/>
<path d="M10.0549 23.9133C7.34494 21.8855 4.22067 20.4813 0.905208 19.8006L0.835104 19.9772C-0.144282 22.5363 -0.265682 25.3442 0.489186 27.9783C1.24405 30.6123 2.83431 32.9298 5.02048 34.5819L5.04645 34.6L5.10617 34.6467L15.4735 42.4073L25.0127 35.2153L10.0549 23.9133Z" fill="#FC6D26"/>
</g>
<defs>
<clipPath id="clip0_1_247">
<rect width="50" height="50" fill="white"/>
</clipPath>
</defs>
</svg>
