<svg width="50" height="50" viewBox="0 0 50 50" fill="none" xmlns="http://www.w3.org/2000/svg">
<path d="M42.1428 32.931C42.5728 32.6841 42.8385 32.2268 42.8401 31.731L42.8651 23.6933C42.8667 23.1975 43.1324 22.7402 43.5623 22.4933L47.9194 19.9904C48.3492 19.7436 48.8779 19.7445 49.3068 19.9927C49.7358 20.241 50 20.699 50 21.1946V35.8075C50 36.3048 49.734 36.7641 49.3028 37.0117L32.8592 46.4564C32.4319 46.7018 31.9065 46.7023 31.4787 46.4578L18.5741 39.077C18.1414 38.8299 17.8743 38.3698 17.8741 37.8715V30.5032C17.8741 30.4949 17.8838 30.4893 17.8922 30.4935C17.8991 30.4976 17.9088 30.4935 17.9088 30.4838V30.4754C17.9088 30.4699 17.9116 30.4643 17.9172 30.4615L28.5452 24.3558C28.555 24.3502 28.5508 24.335 28.5397 24.335C28.5335 24.335 28.5286 24.33 28.5286 24.3239L28.5494 17.1C28.5514 16.6028 28.2874 16.1425 27.8573 15.8931C27.4272 15.6436 26.8966 15.6431 26.466 15.8917L18.5672 20.4432C18.1382 20.6902 17.6101 20.6902 17.181 20.4432L9.25721 15.8806C8.82756 15.6332 8.29862 15.6336 7.86933 15.8816C7.44004 16.1296 7.1755 16.5876 7.1752 17.0834V30.1393C7.17554 30.6345 6.91215 31.0925 6.48392 31.3412C6.05568 31.59 5.5274 31.5919 5.09737 31.3463L0.700023 28.8323C0.266436 28.5846 -0.000833316 28.1233 1.95207e-06 27.6239L0.0388939 4.80387C0.0399711 4.30877 0.304519 3.85167 0.733276 3.60409C1.16203 3.35651 1.69016 3.35589 2.11951 3.60245L17.1824 12.2541C17.6107 12.5001 18.1375 12.5001 18.5658 12.2541L33.6245 3.60245C34.0545 3.35552 34.5835 3.35654 35.0126 3.60514C35.4416 3.85374 35.7056 4.31219 35.7052 4.80804V27.6337C35.7054 28.1307 35.44 28.5899 35.0093 28.8379L27.123 33.3797C26.6918 33.6282 26.4266 34.0885 26.4277 34.5862C26.4289 35.0839 26.6962 35.5429 27.1285 35.7895L31.4787 38.2659C31.9064 38.5094 32.4311 38.5084 32.8579 38.2631L42.1428 32.931ZM43.0554 12.4555C43.0558 12.9555 43.3249 13.4168 43.7601 13.6631C44.1953 13.9094 44.7293 13.9028 45.1582 13.6458L49.325 11.1457C49.7434 10.895 49.9996 10.4432 50 9.95541V4.86082C49.9991 4.36102 49.7297 3.90024 49.2947 3.65425C48.8596 3.40826 48.3259 3.415 47.8972 3.6719L43.7304 6.17197C43.312 6.42268 43.0557 6.8745 43.0554 7.36228V12.4569V12.4555Z" fill="#007FFF"/>
</svg>
