<svg width="50" height="50" viewBox="0 0 50 50" fill="none" xmlns="http://www.w3.org/2000/svg">
<g clip-path="url(#clip0_1_129)">
<path fill-rule="evenodd" clip-rule="evenodd" d="M24.7288 40.2851C24.5592 40.2851 24.401 40.2399 24.2541 40.1607L22.7509 39.2679C22.5249 39.1436 22.6379 39.0984 22.7057 39.0758C23.0109 38.974 23.0674 38.9514 23.3838 38.7706C23.4177 38.748 23.4629 38.7593 23.4968 38.7819L24.6496 39.4713C24.6949 39.4939 24.7514 39.4939 24.7853 39.4713L29.2948 36.8606C29.34 36.838 29.3626 36.7928 29.3626 36.7362V31.526C29.3626 31.4695 29.34 31.4243 29.2948 31.4017L24.7853 28.8022C24.7401 28.7796 24.6836 28.7796 24.6496 28.8022L20.1402 31.4017C20.0949 31.4243 20.0723 31.4808 20.0723 31.526V36.7362C20.0723 36.7814 20.0949 36.838 20.1402 36.8606L21.3721 37.5726C22.0389 37.9116 22.4571 37.5161 22.4571 37.1205V31.9781C22.4571 31.9103 22.5136 31.8425 22.5927 31.8425H23.1691C23.2369 31.8425 23.3047 31.899 23.3047 31.9781V37.1205C23.3047 38.0134 22.8187 38.5333 21.9711 38.5333C21.7111 38.5333 21.5077 38.5333 20.9313 38.2507L19.7446 37.5726C19.4507 37.4031 19.2699 37.0866 19.2699 36.7475V31.5373C19.2699 31.1983 19.4507 30.8818 19.7446 30.7123L24.2541 28.1015C24.5366 27.9433 24.9209 27.9433 25.2034 28.1015L29.7129 30.7123C30.0068 30.8818 30.1876 31.1983 30.1876 31.5373V36.7475C30.1876 37.0866 30.0068 37.4031 29.7129 37.5726L25.2034 40.1833C25.0565 40.2512 24.887 40.2851 24.7288 40.2851ZM26.1189 36.7023C24.1411 36.7023 23.7342 35.7982 23.7342 35.0296C23.7342 34.9618 23.7907 34.894 23.8698 34.894H24.4575C24.5253 34.894 24.5818 34.9392 24.5818 35.007C24.6722 35.606 24.9322 35.8999 26.1302 35.8999C27.0796 35.8999 27.4864 35.6852 27.4864 35.1766C27.4864 34.8827 27.3734 34.668 25.8929 34.5211C24.6609 34.3967 23.8924 34.1255 23.8924 33.1422C23.8924 32.2267 24.6609 31.6843 25.9494 31.6843C27.396 31.6843 28.1081 32.1815 28.1985 33.2665C28.1985 33.3004 28.1872 33.3343 28.1646 33.3682C28.142 33.3909 28.1081 33.4135 28.0742 33.4135H27.4864C27.4299 33.4135 27.3734 33.3682 27.3621 33.3117C27.2265 32.6901 26.8761 32.4867 25.9494 32.4867C24.9096 32.4867 24.7853 32.8484 24.7853 33.1196C24.7853 33.4474 24.9322 33.5491 26.3336 33.7299C27.7238 33.9107 28.3793 34.1707 28.3793 35.1427C28.368 36.1372 27.5543 36.7023 26.1189 36.7023Z" fill="#539E43"/>
<path fill-rule="evenodd" clip-rule="evenodd" d="M10.7369 19.9076C10.7369 19.7041 10.6239 19.512 10.443 19.4103L5.651 16.6526C5.57188 16.6074 5.48147 16.5848 5.39105 16.5735H5.34584C5.25543 16.5735 5.16501 16.6074 5.0859 16.6526L0.293852 19.4103C0.11302 19.512 0 19.7041 0 19.9076L0.011302 27.3217C0.011302 27.4234 0.0678119 27.5251 0.158228 27.5703C0.248644 27.6268 0.361664 27.6268 0.440778 27.5703L3.28888 25.9428C3.46971 25.8411 3.58273 25.649 3.58273 25.4456V21.9758C3.58273 21.7724 3.69575 21.5803 3.87658 21.4786L5.0859 20.7778C5.17631 20.7213 5.27803 20.6987 5.37975 20.6987C5.48147 20.6987 5.58318 20.7213 5.6623 20.7778L6.87161 21.4786C7.05244 21.5803 7.16546 21.7724 7.16546 21.9758V25.4456C7.16546 25.649 7.27848 25.8411 7.45931 25.9428L10.3074 27.5703C10.3978 27.6268 10.5109 27.6268 10.6013 27.5703C10.6917 27.5251 10.7482 27.4234 10.7482 27.3217L10.7369 19.9076Z" fill="#333333"/>
<path fill-rule="evenodd" clip-rule="evenodd" d="M33.7702 9.70187C33.6798 9.65667 33.5668 9.65667 33.4877 9.70187C33.3973 9.75838 33.3408 9.8488 33.3408 9.95052V17.2968C33.3408 17.3646 33.3069 17.4324 33.239 17.4776C33.1712 17.5116 33.1034 17.5116 33.0356 17.4776L31.8376 16.7882C31.6568 16.6865 31.442 16.6865 31.2612 16.7882L26.4691 19.5572C26.2883 19.6589 26.1753 19.8511 26.1753 20.0545V25.5812C26.1753 25.7846 26.2883 25.9767 26.4691 26.0785L31.2612 28.8474C31.442 28.9492 31.6568 28.9492 31.8376 28.8474L36.6296 26.0785C36.8105 25.9767 36.9235 25.7846 36.9235 25.5812V11.804C36.9235 11.5893 36.8105 11.3972 36.6296 11.2955L33.7702 9.70187ZM33.3294 23.7615C33.3294 23.8181 33.3068 23.8633 33.2616 23.8859L31.6228 24.8352C31.5776 24.8578 31.5211 24.8578 31.4759 24.8352L29.8371 23.8859C29.7919 23.8633 29.7693 23.8068 29.7693 23.7615V21.8628C29.7693 21.8063 29.7919 21.7611 29.8371 21.7385L31.4759 20.7891C31.5211 20.7665 31.5776 20.7665 31.6228 20.7891L33.2616 21.7385C33.3068 21.7611 33.3294 21.8176 33.3294 21.8628V23.7615Z" fill="#333333"/>
<path fill-rule="evenodd" clip-rule="evenodd" d="M49.7174 21.8176C49.8983 21.7159 50 21.5238 50 21.3203V19.9754C50 19.772 49.887 19.5798 49.7174 19.4781L44.9593 16.7204C44.7785 16.6187 44.5637 16.6187 44.3829 16.7204L39.5908 19.4894C39.41 19.5911 39.297 19.7833 39.297 19.9867V25.5134C39.297 25.7168 39.41 25.9089 39.5908 26.0107L44.349 28.7231C44.5298 28.8249 44.7446 28.8249 44.9141 28.7231L47.7961 27.1183C47.8865 27.073 47.943 26.9713 47.943 26.8696C47.943 26.7679 47.8865 26.6662 47.7961 26.621L42.9814 23.852C42.891 23.7955 42.8345 23.7051 42.8345 23.6033V21.8741C42.8345 21.7724 42.891 21.6707 42.9814 21.6255L44.4846 20.7665C44.575 20.71 44.688 20.71 44.7785 20.7665L46.2816 21.6255C46.372 21.682 46.4286 21.7724 46.4286 21.8741V23.2304C46.4286 23.3321 46.4851 23.4338 46.5755 23.479C46.6659 23.5355 46.7789 23.5355 46.8693 23.479L49.7174 21.8176Z" fill="#333333"/>
<path fill-rule="evenodd" clip-rule="evenodd" d="M44.5976 21.5577C44.6315 21.5351 44.6767 21.5351 44.7106 21.5577L45.6261 22.0889C45.66 22.1115 45.6826 22.1454 45.6826 22.1906V23.253C45.6826 23.2982 45.66 23.3321 45.6261 23.3547L44.7106 23.8859C44.6767 23.9085 44.6315 23.9085 44.5976 23.8859L43.6821 23.3547C43.6482 23.3321 43.6256 23.2982 43.6256 23.253V22.1906C43.6256 22.1454 43.6482 22.1115 43.6821 22.0889L44.5976 21.5577Z" fill="#539E43"/>
<path fill-rule="evenodd" clip-rule="evenodd" d="M18.75 16.743C18.5692 16.6413 18.3545 16.6413 18.1736 16.743L13.4155 19.4894C13.2347 19.5911 13.1329 19.7832 13.1329 19.9867V25.4907C13.1329 25.6942 13.246 25.8863 13.4155 25.988L18.1736 28.7344C18.3545 28.8361 18.5692 28.8361 18.75 28.7344L23.5082 25.988C23.689 25.8863 23.7907 25.6942 23.7907 25.4907V19.9867C23.7907 19.7832 23.6777 19.5911 23.5082 19.4894L18.75 16.743Z" fill="white"/>
<path fill-rule="evenodd" clip-rule="evenodd" d="M18.75 16.743C18.5692 16.6413 18.3545 16.6413 18.1736 16.743L13.4155 19.4894C13.2347 19.5911 13.1329 19.7832 13.1329 19.9867V25.4907C13.1329 25.6942 13.246 25.8863 13.4155 25.988L18.1736 28.7344C18.3545 28.8361 18.5692 28.8361 18.75 28.7344L23.5082 25.988C23.689 25.8863 23.7907 25.6942 23.7907 25.4907V19.9867C23.7907 19.7832 23.6777 19.5911 23.5082 19.4894L18.75 16.743Z" fill="url(#paint0_linear_1_129)"/>
<mask id="mask0_1_129" style="mask-type:luminance" maskUnits="userSpaceOnUse" x="13" y="16" width="11" height="13">
<path fill-rule="evenodd" clip-rule="evenodd" d="M18.75 16.743C18.5692 16.6413 18.3545 16.6413 18.1736 16.743L13.4155 19.4894C13.2347 19.5911 13.1329 19.7832 13.1329 19.9867V25.4907C13.1329 25.6942 13.246 25.8863 13.4155 25.988L18.1736 28.7344C18.3545 28.8361 18.5692 28.8361 18.75 28.7344L23.5082 25.988C23.689 25.8863 23.7907 25.6942 23.7907 25.4907V19.9867C23.7907 19.7832 23.6777 19.5911 23.5082 19.4894L18.75 16.743Z" fill="white"/>
</mask>
<g mask="url(#mask0_1_129)">
<path fill-rule="evenodd" clip-rule="evenodd" d="M23.5196 19.4894L18.7388 16.743C18.6936 16.7204 18.6371 16.6978 18.5919 16.6865L13.2347 25.8637C13.2799 25.9202 13.3365 25.9655 13.393 25.9994L18.1737 28.7457C18.3093 28.8249 18.4676 28.8475 18.6145 28.8023L23.6439 19.6024C23.61 19.5572 23.5648 19.5233 23.5196 19.4894Z" fill="url(#paint1_linear_1_129)"/>
</g>
<mask id="mask1_1_129" style="mask-type:luminance" maskUnits="userSpaceOnUse" x="13" y="16" width="11" height="13">
<path fill-rule="evenodd" clip-rule="evenodd" d="M18.75 16.743C18.5692 16.6413 18.3545 16.6413 18.1736 16.743L13.4155 19.4894C13.2347 19.5911 13.1329 19.7832 13.1329 19.9867V25.4907C13.1329 25.6942 13.246 25.8863 13.4155 25.988L18.1736 28.7344C18.3545 28.8361 18.5692 28.8361 18.75 28.7344L23.5082 25.988C23.689 25.8863 23.7907 25.6942 23.7907 25.4907V19.9867C23.7907 19.7832 23.6777 19.5911 23.5082 19.4894L18.75 16.743Z" fill="white"/>
</mask>
<g mask="url(#mask1_1_129)">
<path fill-rule="evenodd" clip-rule="evenodd" d="M23.5308 25.988C23.6664 25.9089 23.7682 25.7733 23.8134 25.6264L18.5692 16.6752C18.4336 16.6526 18.2867 16.6639 18.1624 16.743L13.4155 19.4781L18.5353 28.8135C18.6031 28.8022 18.6823 28.7796 18.7501 28.7457L23.5308 25.988Z" fill="url(#paint2_linear_1_129)"/>
<path fill-rule="evenodd" clip-rule="evenodd" d="M23.5308 25.988L18.7614 28.7344C18.6936 28.7683 18.6257 28.7909 18.5466 28.8022L18.637 28.9718L23.9264 25.9089V25.8411L23.7908 25.6151C23.7682 25.7733 23.6664 25.9089 23.5308 25.988Z" fill="url(#paint3_linear_1_129)"/>
<path fill-rule="evenodd" clip-rule="evenodd" d="M23.5308 25.988L18.7614 28.7344C18.6936 28.7683 18.6257 28.7909 18.5466 28.8022L18.637 28.9718L23.9264 25.9089V25.8411L23.7908 25.6151C23.7682 25.7733 23.6664 25.9089 23.5308 25.988Z" fill="url(#paint4_linear_1_129)"/>
</g>
</g>
<defs>
<linearGradient id="paint0_linear_1_129" x1="17.4341" y1="17.2466" x2="12.3693" y2="23.3759" gradientUnits="userSpaceOnUse">
<stop stop-color="#41873F"/>
<stop offset="0.3288" stop-color="#418B3D"/>
<stop offset="0.6352" stop-color="#419637"/>
<stop offset="0.9319" stop-color="#3FA92D"/>
<stop offset="1" stop-color="#3FAE2A"/>
</linearGradient>
<linearGradient id="paint1_linear_1_129" x1="20.5514" y1="30.2559" x2="33.2207" y2="25.1944" gradientUnits="userSpaceOnUse">
<stop offset="0.1376" stop-color="#41873F"/>
<stop offset="0.4032" stop-color="#54A044"/>
<stop offset="0.7136" stop-color="#66B848"/>
<stop offset="0.9081" stop-color="#6CC04A"/>
</linearGradient>
<linearGradient id="paint2_linear_1_129" x1="12.9592" y1="29.1709" x2="23.9692" y2="29.1709" gradientUnits="userSpaceOnUse">
<stop offset="0.0919165" stop-color="#6CC04A"/>
<stop offset="0.2864" stop-color="#66B848"/>
<stop offset="0.5968" stop-color="#54A044"/>
<stop offset="0.8624" stop-color="#41873F"/>
</linearGradient>
<linearGradient id="paint3_linear_1_129" x1="12.9592" y1="30.7375" x2="23.9692" y2="30.7375" gradientUnits="userSpaceOnUse">
<stop offset="0.0919165" stop-color="#6CC04A"/>
<stop offset="0.2864" stop-color="#66B848"/>
<stop offset="0.5968" stop-color="#54A044"/>
<stop offset="0.8624" stop-color="#41873F"/>
</linearGradient>
<linearGradient id="paint4_linear_1_129" x1="11.8244" y1="17.7054" x2="10.7864" y2="31.6769" gradientUnits="userSpaceOnUse">
<stop stop-color="#41873F"/>
<stop offset="0.3288" stop-color="#418B3D"/>
<stop offset="0.6352" stop-color="#419637"/>
<stop offset="0.9319" stop-color="#3FA92D"/>
<stop offset="1" stop-color="#3FAE2A"/>
</linearGradient>
<clipPath id="clip0_1_129">
<rect width="50" height="50" fill="white"/>
</clipPath>
</defs>
</svg>
