<svg width="60" height="60" viewBox="0 0 60 60" fill="none" xmlns="http://www.w3.org/2000/svg">
<path d="M59.8412 35.9413C59.4806 34.8819 58.5359 34.144 57.3142 33.967C56.7382 33.8836 56.0784 33.9191 55.2977 34.0752C53.937 34.3475 52.9275 34.4512 52.1907 34.4713C54.9717 29.9171 57.2329 24.7238 58.5347 19.8351C60.6398 11.9302 59.5149 8.32907 58.2004 6.7002C54.7217 2.38874 49.6463 0.072586 43.5234 0.00171585C40.257 -0.0370234 37.3896 0.588502 35.8938 1.03833C34.501 0.799973 33.0036 0.666892 31.4323 0.642282C28.4869 0.596706 25.8845 1.2195 23.6608 2.49949C22.4297 2.09569 20.4539 1.52645 18.1722 1.16321C12.8057 0.308668 8.4805 0.974528 5.31682 3.14233C1.48592 5.76704 -0.289972 10.3273 0.0384708 16.6965C0.142783 18.7187 1.30902 24.8714 3.14529 30.7065C4.20063 34.0604 5.32598 36.8455 6.4901 38.9853C8.14101 42.0195 9.90751 43.8063 11.8906 44.448C13.0021 44.8071 15.0216 45.0587 17.1457 43.3428C17.4149 43.6591 17.7742 43.9733 18.2509 44.2652C18.8563 44.6355 19.5966 44.9382 20.3359 45.1175C23.0004 45.7635 25.4961 45.602 27.6254 44.6964C27.6385 45.0637 27.6486 45.4147 27.6571 45.7177C27.6712 46.2093 27.6853 46.6912 27.7038 47.142C27.83 50.1896 28.0438 52.5593 28.6772 54.2174C28.7119 54.3085 28.7587 54.4475 28.808 54.595C29.124 55.5334 29.6524 57.1044 30.9967 58.3347C32.3887 59.6092 34.0725 60 35.6147 60C36.3881 60 37.126 59.9016 37.7733 59.7671C40.0803 59.2874 42.7006 58.5568 44.5961 55.939C46.3882 53.4642 47.2593 49.7368 47.417 43.8637C47.4374 43.6976 47.4562 43.539 47.4743 43.3879L47.5119 43.0775L47.9341 43.1135L48.0429 43.1206C50.3927 43.2245 53.266 42.7412 55.0306 41.9461C56.425 41.3185 60.8933 39.0304 59.8412 35.9413Z" fill="black"/>
<path d="M55.8234 36.542C48.8363 37.9401 48.3559 35.6456 48.3559 35.6456C55.7329 25.028 58.817 11.5506 56.1558 8.25206C48.8953 -0.745718 36.3273 3.50968 36.1175 3.61998L36.05 3.63183C34.6695 3.35382 33.1248 3.18838 31.3884 3.1608C28.2271 3.11067 25.8288 3.96476 24.009 5.30332C24.009 5.30332 1.58883 -3.6555 2.63172 16.5705C2.8535 20.8733 8.99009 49.1282 16.3094 40.5939C18.9846 37.4732 21.5696 34.8345 21.5696 34.8345C22.8533 35.6617 24.3903 36.0838 26.0015 35.9322L26.1267 35.8292C26.0877 36.2166 26.1056 36.5956 26.1768 37.0443C24.2911 39.0877 24.8454 39.4464 21.076 40.199C17.2618 40.9615 19.5024 42.3188 20.9654 42.6738C22.7389 43.1038 26.8419 43.7132 29.6141 39.9488L29.5037 40.3784C30.2424 40.9524 30.7611 44.1117 30.6742 46.9759C30.5873 49.8399 30.5292 51.8063 31.1112 53.3422C31.6936 54.8781 32.2736 58.3338 37.229 57.3041C41.3693 56.4434 43.515 54.2131 43.8136 50.4928C44.0252 47.848 44.5048 48.239 44.5348 45.8744L44.9194 44.755C45.3627 41.1698 44.9899 40.0131 47.5406 40.5511L48.1609 40.604C50.038 40.6867 52.4955 40.3109 53.9378 39.6608C57.0432 38.263 58.8851 35.9288 55.8229 36.542H55.8234Z" fill="#336791"/>
<path d="M25.3213 18.4947C24.6917 18.4097 24.1215 18.4884 23.833 18.7003C23.6709 18.8195 23.6206 18.9575 23.607 19.0526C23.5708 19.3044 23.7526 19.5828 23.8645 19.7264C24.1807 20.1329 24.6426 20.4123 25.0998 20.4738C25.166 20.483 25.232 20.4871 25.2976 20.4871C26.06 20.4871 26.7533 19.9112 26.8144 19.4862C26.8907 18.9539 26.094 18.5991 25.3213 18.495V18.4947ZM46.1801 18.5116C46.1199 18.0944 45.3545 17.9754 44.6281 18.0734C43.9026 18.1714 43.1992 18.489 43.2579 18.9072C43.3049 19.2324 43.9103 19.7875 44.6269 19.7875C44.6875 19.7875 44.7486 19.7836 44.8102 19.7752C45.2885 19.7109 45.6395 19.4163 45.8063 19.2465C46.06 18.9876 46.2071 18.6991 46.1801 18.5116Z" fill="white"/>
<path d="M58.1483 36.3832C57.8819 35.6018 57.0244 35.3505 55.5997 35.6358C51.3696 36.4826 49.8548 35.896 49.3574 35.5407C52.6454 30.6824 55.3502 24.8095 56.8094 19.3301C57.5006 16.7346 57.8824 14.3241 57.9136 12.3593C57.9482 10.2029 57.5694 8.61824 56.7885 7.65022C53.6399 3.74779 49.0186 1.6545 43.4247 1.59707C39.579 1.55514 36.3298 2.50973 35.7 2.77817C34.3735 2.45823 32.9275 2.2618 31.3531 2.23673C28.4662 2.19138 25.9707 2.8618 23.9046 4.22839C23.0072 3.90435 20.6879 3.13206 17.8515 2.68884C12.9478 1.92317 9.05113 2.50335 6.2704 4.41411C2.95236 6.69426 1.42056 10.7701 1.71729 16.5281C1.81714 18.4653 2.95518 24.4248 4.75105 30.132C7.115 37.6438 9.68476 41.8963 12.3884 42.7711C12.7049 42.8734 13.0697 42.945 13.4722 42.945C14.4585 42.945 15.6677 42.5138 16.9258 41.0468C18.4603 39.2612 20.0477 37.519 21.6859 35.8224C22.7487 36.3757 23.9164 36.6847 25.1106 36.7157C25.1129 36.746 25.116 36.7763 25.1188 36.8064C24.9132 37.0442 24.7119 37.2854 24.515 37.5299C23.6876 38.5487 23.5153 38.7609 20.8519 39.2928C20.0942 39.4445 18.0819 39.8467 18.0523 41.2149C18.0204 42.7098 20.4311 43.3376 20.7057 43.4042C21.6629 43.6366 22.585 43.7512 23.4644 43.7512C25.603 43.7512 27.4851 43.0694 28.9892 41.7502C28.9429 47.0794 29.172 52.3306 29.8317 53.9306C30.372 55.2404 31.6919 58.4414 35.8611 58.4412C36.4729 58.4412 37.1462 58.3721 37.887 58.2181C42.2383 57.3134 44.1279 55.448 44.8588 51.3355C45.25 49.1376 45.9212 43.8893 46.2369 41.0741C46.9032 41.2758 47.761 41.3681 48.6883 41.3678C50.6223 41.3678 52.854 40.9693 54.2535 40.3392C55.8257 39.6309 58.6628 37.8931 58.1483 36.3832ZM47.7861 17.3599C47.7718 18.191 47.6539 18.9455 47.5289 19.733C47.3943 20.5801 47.2552 21.4558 47.2202 22.5188C47.1856 23.5534 47.3188 24.629 47.4476 25.6693C47.7079 27.7703 47.975 29.9333 46.9411 32.0676C46.7693 31.7725 46.6163 31.4674 46.4829 31.1541C46.3544 30.8519 46.0753 30.3665 45.6888 29.6947C44.1855 27.0796 40.6649 20.9556 42.4671 18.4567C43.004 17.7129 44.3664 16.9481 47.7861 17.3599ZM43.6409 3.27996C48.6531 3.38729 52.6179 5.20599 55.4249 8.68524C57.5779 11.3539 55.2071 23.4969 48.3439 33.9727C48.2749 33.8876 48.2055 33.8027 48.1357 33.7182L48.0488 33.6129C49.8223 30.7719 49.4756 27.961 49.1669 25.469C49.04 24.4462 48.9202 23.4803 48.9507 22.5729C48.9822 21.6112 49.1133 20.7863 49.2402 19.9887C49.3959 19.0059 49.5545 17.9888 49.5108 16.79C49.5435 16.6642 49.5566 16.5156 49.5395 16.3392C49.4279 15.1896 48.0746 11.7488 45.3165 8.63465C43.8077 6.93126 41.6075 5.02505 38.6033 3.73936C39.8955 3.47958 41.6625 3.23734 43.6409 3.27996ZM15.5944 39.973C14.2083 41.5896 13.2511 41.2796 12.9363 41.178C10.8853 40.5144 8.50537 36.3096 6.40713 29.6419C4.59153 23.8724 3.53054 18.0709 3.44644 16.4441C3.18143 11.299 4.46724 7.71334 7.26841 5.7864C11.8272 2.65078 19.3222 4.52759 22.3338 5.47944C22.2906 5.52092 22.2455 5.55966 22.2027 5.60181C17.2606 10.4429 17.3778 18.714 17.39 19.2196C17.3896 19.4147 17.4065 19.6909 17.4295 20.0707C17.5146 21.4619 17.6729 24.0511 17.25 26.9832C16.8572 29.708 17.7232 32.3748 19.6255 34.3002C19.8207 34.4974 20.0259 34.6851 20.2403 34.8626C19.3936 35.7422 17.5533 37.6874 15.5944 39.973ZM20.8756 33.1382C19.3424 31.5864 18.646 29.4279 18.9648 27.2157C19.4112 24.1183 19.2465 21.4207 19.1579 19.9714C19.1455 19.7686 19.1344 19.5908 19.1281 19.4507C19.8501 18.8297 23.1958 17.091 25.5819 17.6213C26.6706 17.8631 27.334 18.5822 27.6099 19.8192C29.0373 26.2232 27.7987 28.8924 26.8035 31.0374C26.5984 31.4793 26.4046 31.897 26.2392 32.329L26.1109 32.6631C25.7863 33.5076 25.4841 34.2929 25.2969 35.0385C23.6669 35.0339 22.0813 34.3585 20.8756 33.138V33.1382ZM21.1258 41.7748C20.6498 41.6595 20.2217 41.4592 19.9706 41.2931C20.1804 41.1974 20.5537 41.067 21.2012 40.9376C24.3346 40.3121 24.8186 39.8704 25.8753 38.569C26.1175 38.2705 26.3922 37.9323 26.7725 37.5203L26.773 37.5199C27.3394 36.9046 27.5986 37.009 28.0685 37.1981C28.4493 37.3508 28.8203 37.8138 28.9706 38.3234C29.0418 38.564 29.1217 39.0207 28.8602 39.3762C26.6527 42.3741 23.4359 42.3356 21.1258 41.7748ZM37.5243 56.576C33.691 57.3727 32.3338 55.4756 31.4394 53.3069C30.8621 51.9068 30.5783 45.5932 30.7796 38.6208C30.7822 38.528 30.7686 38.4385 30.7423 38.3541C30.7188 38.1876 30.6829 38.023 30.6352 37.8615C30.3358 36.8469 29.6064 35.9983 28.7312 35.6465C28.3835 35.5068 27.7454 35.2504 26.9786 35.4407C27.1421 34.7872 27.4257 34.0491 27.7332 33.2499L27.8622 32.9138C28.0074 32.5348 28.1897 32.1422 28.3823 31.7265C29.4238 29.4824 30.8501 26.4085 29.3021 19.4644C28.7223 16.8634 26.7859 15.5932 23.8506 15.8883C22.0909 16.0649 20.4809 16.7535 19.6779 17.1484C19.5052 17.2332 19.3473 17.3152 19.1998 17.395C19.4239 14.7744 20.2706 9.87682 23.4381 6.77812C25.4324 4.82748 28.0884 3.86401 31.3245 3.91597C37.7007 4.01715 41.7896 7.19104 44.0971 9.83603C46.0857 12.115 47.1624 14.4109 47.5921 15.6492C44.3605 15.3304 42.1626 15.9491 41.0486 17.4941C38.6247 20.8549 42.3746 27.3777 44.1768 30.5126C44.5073 31.0871 44.7925 31.5836 44.8823 31.7947C45.4692 33.1742 46.229 34.0953 46.7836 34.7676C46.9537 34.9736 47.1187 35.1734 47.2441 35.348C46.2654 35.6216 44.5073 36.254 44.6676 39.4149C44.5383 41.0009 43.6195 48.4266 43.1527 51.0502C42.5364 54.5162 41.2215 55.8071 37.5243 56.5762V56.576ZM53.5245 38.8161C52.5237 39.2666 50.8488 39.6045 49.2578 39.6772C47.5005 39.757 46.6058 39.4862 46.3953 39.3197C46.2966 37.3499 47.0524 37.1441 47.8524 36.9263C47.9781 36.8921 48.1007 36.8586 48.2191 36.8185C48.2927 36.8766 48.3732 36.9342 48.4616 36.9907C49.874 37.895 52.3933 37.9925 55.95 37.2804L55.989 37.2729C55.5093 37.7079 54.6884 38.2917 53.5245 38.8161Z" fill="white"/>
</svg>
