<svg width="50" height="50" viewBox="0 0 50 50" fill="none" xmlns="http://www.w3.org/2000/svg">
<g clip-path="url(#clip0_1_444)">
<path d="M24.76 0.195312C12.0975 0.195313 12.8882 5.68656 12.8882 5.68656L12.9023 11.3754H24.9859V13.0835H8.10277C8.10277 13.0835 0 12.1646 0 24.9412C-9.03125e-07 37.7178 7.07228 37.2648 7.07228 37.2648H11.2931V31.3359C11.2931 31.3359 11.0655 24.2636 18.2524 24.2636H30.2372C30.2372 24.2636 36.9706 24.3725 36.9706 17.756V6.81587C36.9706 6.81586 37.993 0.195312 24.76 0.195312ZM18.0971 4.02083C19.2993 4.02083 20.271 4.99252 20.271 6.19475C20.271 7.39697 19.2993 8.36866 18.0971 8.36866C16.8949 8.36866 15.9232 7.39697 15.9232 6.19475C15.9232 4.99252 16.8949 4.02083 18.0971 4.02083Z" fill="url(#paint0_linear_1_444)"/>
<path d="M25.1197 49.8152C37.7822 49.8152 36.9915 44.324 36.9915 44.324L36.9774 38.6351H24.8938V36.927H41.7769C41.7769 36.927 49.8797 37.846 49.8797 25.0693C49.8797 12.2927 42.8074 12.7458 42.8074 12.7458H38.5866V18.6746C38.5866 18.6746 38.8142 25.7469 31.6273 25.7469H19.6425C19.6425 25.7469 12.9091 25.6381 12.9091 32.2545V43.1947C12.9091 43.1947 11.8867 49.8152 25.1197 49.8152ZM31.7826 45.9897C30.5803 45.9897 29.6087 45.018 29.6087 43.8158C29.6087 42.6136 30.5803 41.6419 31.7826 41.6419C32.9848 41.6419 33.9565 42.6136 33.9565 43.8158C33.9565 45.018 32.9848 45.9897 31.7826 45.9897Z" fill="url(#paint1_linear_1_444)"/>
</g>
<defs>
<linearGradient id="paint0_linear_1_444" x1="4.79353" y1="4.65849" x2="29.5121" y2="29.1304" gradientUnits="userSpaceOnUse">
<stop stop-color="#387EB8"/>
<stop offset="1" stop-color="#366994"/>
</linearGradient>
<linearGradient id="paint1_linear_1_444" x1="19.9658" y1="20.3728" x2="46.5109" y2="45.4667" gradientUnits="userSpaceOnUse">
<stop stop-color="#FFE052"/>
<stop offset="1" stop-color="#FFC331"/>
</linearGradient>
<clipPath id="clip0_1_444">
<rect width="50" height="50" fill="white"/>
</clipPath>
</defs>
</svg>
